<mxfile host="app.diagrams.net" modified="2023-08-27T01:36:19.819Z" agent="Mozilla/5.0 (Windows NT 10.0; Win64; x64) AppleWebKit/537.36 (KHTML, like Gecko) Chrome/116.0.0.0 Safari/537.36" version="21.6.9" etag="XgS3EL_kMhTllO2I9F8q" type="github">
  <diagram name="Page-1" id="0vrFlVaZlIK6WQddftU2">
    <mxGraphModel>
      <root>
        <mxCell id="0" />
        <mxCell id="1" parent="0" />
      </root>
    </mxGraphModel>
  </diagram>
</mxfile>
